# xmcd
#
# Track frame offsets:
#   183
#   17483
#   48983
#
# Disc length: 1091 seconds
#
# Revision: 1
# Processed by: cddbd v1.5.1PL0 Copyright (c) Steve Scherf et al.
# Submitted via: Media_Universe 3.0
#
DISCID=18044103
DTITLE=Gipsy Kings - Gipsy Kings
DYEAR=1900
DGENRE=Country
TTITLE0=Bamboleo (Radio Edit)
TTITLE1=Bamboleo (Club Mix)
TTITLE2=Bamboleo (Latin Mix)
EXTD=
EXTT0=
EXTT1=
EXTT2=
PLAYORDER=
